<mxfile host="app.diagrams.net" modified="2024-07-03T07:20:23.961Z" agent="Mozilla/5.0 (Windows NT 10.0; Win64; x64) AppleWebKit/537.36 (KHTML, like Gecko) Chrome/123.0.0.0 Safari/537.36 OPR/109.0.0.0" etag="ncZNSJtCFJCoxmrv1ZK7" version="24.6.4" type="github">
  <diagram name="Page-1" id="PRafLe8bgVeTUJUW9HHk">
    <mxGraphModel dx="849" dy="531" grid="1" gridSize="10" guides="1" tooltips="1" connect="1" arrows="1" fold="1" page="1" pageScale="1" pageWidth="850" pageHeight="1100" math="0" shadow="0">
      <root>
        <mxCell id="0" />
        <mxCell id="1" parent="0" />
        <mxCell id="eS-4gp80YIAjnc0CWzjl-1" value="Guest" style="shape=umlActor;verticalLabelPosition=bottom;verticalAlign=top;html=1;outlineConnect=0;" vertex="1" parent="1">
          <mxGeometry x="160" y="270" width="30" height="60" as="geometry" />
        </mxCell>
        <mxCell id="eS-4gp80YIAjnc0CWzjl-2" value="Admin" style="shape=umlActor;verticalLabelPosition=bottom;verticalAlign=top;html=1;outlineConnect=0;" vertex="1" parent="1">
          <mxGeometry x="600" y="260" width="30" height="60" as="geometry" />
        </mxCell>
        <mxCell id="eS-4gp80YIAjnc0CWzjl-3" value="&lt;font style=&quot;font-size: 11px;&quot;&gt;Melihat Seluruh&amp;nbsp;&lt;/font&gt;&lt;span style=&quot;font-size: 11px; background-color: initial;&quot;&gt;Informasi Profile&lt;/span&gt;" style="strokeWidth=2;html=1;shape=mxgraph.flowchart.start_1;whiteSpace=wrap;" vertex="1" parent="1">
          <mxGeometry x="340" y="140" width="80" height="50" as="geometry" />
        </mxCell>
        <mxCell id="eS-4gp80YIAjnc0CWzjl-6" value="" style="endArrow=classic;html=1;rounded=0;entryX=0;entryY=0.5;entryDx=0;entryDy=0;entryPerimeter=0;exitX=1;exitY=0.3333333333333333;exitDx=0;exitDy=0;exitPerimeter=0;" edge="1" parent="1" source="eS-4gp80YIAjnc0CWzjl-1" target="eS-4gp80YIAjnc0CWzjl-3">
          <mxGeometry width="50" height="50" relative="1" as="geometry">
            <mxPoint x="200" y="300" as="sourcePoint" />
            <mxPoint x="350" y="230" as="targetPoint" />
          </mxGeometry>
        </mxCell>
        <mxCell id="eS-4gp80YIAjnc0CWzjl-7" value="&lt;span style=&quot;font-size: 11px;&quot;&gt;Daftar Bimbel&lt;/span&gt;" style="strokeWidth=2;html=1;shape=mxgraph.flowchart.start_1;whiteSpace=wrap;" vertex="1" parent="1">
          <mxGeometry x="345" y="410" width="80" height="50" as="geometry" />
        </mxCell>
        <mxCell id="eS-4gp80YIAjnc0CWzjl-10" value="" style="endArrow=classic;html=1;rounded=0;entryX=0;entryY=0.5;entryDx=0;entryDy=0;entryPerimeter=0;exitX=1;exitY=0.3333333333333333;exitDx=0;exitDy=0;exitPerimeter=0;" edge="1" parent="1" source="eS-4gp80YIAjnc0CWzjl-1" target="eS-4gp80YIAjnc0CWzjl-7">
          <mxGeometry width="50" height="50" relative="1" as="geometry">
            <mxPoint x="200" y="300" as="sourcePoint" />
            <mxPoint x="360" y="240" as="targetPoint" />
          </mxGeometry>
        </mxCell>
        <mxCell id="eS-4gp80YIAjnc0CWzjl-11" value="&lt;span style=&quot;font-size: 11px;&quot;&gt;Baca Blogs/Artikel&lt;/span&gt;" style="strokeWidth=2;html=1;shape=mxgraph.flowchart.start_1;whiteSpace=wrap;" vertex="1" parent="1">
          <mxGeometry x="340" y="210" width="80" height="50" as="geometry" />
        </mxCell>
        <mxCell id="eS-4gp80YIAjnc0CWzjl-12" value="" style="endArrow=classic;html=1;rounded=0;entryX=0;entryY=0.5;entryDx=0;entryDy=0;entryPerimeter=0;exitX=1;exitY=0.3333333333333333;exitDx=0;exitDy=0;exitPerimeter=0;" edge="1" parent="1" source="eS-4gp80YIAjnc0CWzjl-1" target="eS-4gp80YIAjnc0CWzjl-11">
          <mxGeometry width="50" height="50" relative="1" as="geometry">
            <mxPoint x="200" y="300" as="sourcePoint" />
            <mxPoint x="355" y="270" as="targetPoint" />
          </mxGeometry>
        </mxCell>
        <mxCell id="eS-4gp80YIAjnc0CWzjl-14" value="" style="endArrow=classic;html=1;rounded=0;exitX=0;exitY=0.3333333333333333;exitDx=0;exitDy=0;exitPerimeter=0;entryX=1;entryY=0.5;entryDx=0;entryDy=0;entryPerimeter=0;" edge="1" parent="1" source="eS-4gp80YIAjnc0CWzjl-2" target="eS-4gp80YIAjnc0CWzjl-3">
          <mxGeometry width="50" height="50" relative="1" as="geometry">
            <mxPoint x="510" y="300" as="sourcePoint" />
            <mxPoint x="560" y="250" as="targetPoint" />
          </mxGeometry>
        </mxCell>
        <mxCell id="eS-4gp80YIAjnc0CWzjl-15" value="" style="endArrow=classic;html=1;rounded=0;exitX=0;exitY=0.3333333333333333;exitDx=0;exitDy=0;exitPerimeter=0;" edge="1" parent="1" source="eS-4gp80YIAjnc0CWzjl-2" target="eS-4gp80YIAjnc0CWzjl-11">
          <mxGeometry width="50" height="50" relative="1" as="geometry">
            <mxPoint x="605" y="347.5" as="sourcePoint" />
            <mxPoint x="425" y="232.5" as="targetPoint" />
          </mxGeometry>
        </mxCell>
        <mxCell id="eS-4gp80YIAjnc0CWzjl-16" value="&lt;span style=&quot;font-size: 11px;&quot;&gt;Mengolah (CRUD)&lt;/span&gt;&lt;div&gt;&lt;span style=&quot;font-size: 11px;&quot;&gt;Data Sistem&lt;/span&gt;&lt;/div&gt;" style="strokeWidth=2;html=1;shape=mxgraph.flowchart.start_1;whiteSpace=wrap;" vertex="1" parent="1">
          <mxGeometry x="340" y="340" width="80" height="50" as="geometry" />
        </mxCell>
        <mxCell id="eS-4gp80YIAjnc0CWzjl-18" value="" style="endArrow=classic;html=1;rounded=0;exitX=0;exitY=0.3333333333333333;exitDx=0;exitDy=0;exitPerimeter=0;entryX=1;entryY=0.5;entryDx=0;entryDy=0;entryPerimeter=0;" edge="1" parent="1" source="eS-4gp80YIAjnc0CWzjl-2" target="eS-4gp80YIAjnc0CWzjl-16">
          <mxGeometry width="50" height="50" relative="1" as="geometry">
            <mxPoint x="610" y="290" as="sourcePoint" />
            <mxPoint x="430" y="253" as="targetPoint" />
          </mxGeometry>
        </mxCell>
        <mxCell id="eS-4gp80YIAjnc0CWzjl-19" value="&lt;span style=&quot;font-size: 11px;&quot;&gt;Login as&amp;nbsp;&lt;/span&gt;&lt;div&gt;&lt;span style=&quot;font-size: 11px;&quot;&gt;Admin&lt;/span&gt;&lt;/div&gt;" style="strokeWidth=2;html=1;shape=mxgraph.flowchart.start_1;whiteSpace=wrap;" vertex="1" parent="1">
          <mxGeometry x="340" y="275" width="80" height="50" as="geometry" />
        </mxCell>
        <mxCell id="eS-4gp80YIAjnc0CWzjl-20" value="" style="endArrow=classic;html=1;rounded=0;entryX=1;entryY=0.5;entryDx=0;entryDy=0;entryPerimeter=0;exitX=0;exitY=0.3333333333333333;exitDx=0;exitDy=0;exitPerimeter=0;" edge="1" parent="1" source="eS-4gp80YIAjnc0CWzjl-2" target="eS-4gp80YIAjnc0CWzjl-19">
          <mxGeometry width="50" height="50" relative="1" as="geometry">
            <mxPoint x="600" y="290" as="sourcePoint" />
            <mxPoint x="430" y="253" as="targetPoint" />
          </mxGeometry>
        </mxCell>
      </root>
    </mxGraphModel>
  </diagram>
</mxfile>
